<?xml version="1.0" encoding="iso-8859-1"?>
<!-- Uploaded to: SVG Repo, www.svgrepo.com, Generator: SVG Repo Mixer Tools -->
<svg version="1.1" id="Layer_1" xmlns="http://www.w3.org/2000/svg" xmlns:xlink="http://www.w3.org/1999/xlink" 
	 viewBox="0 0 512 512" xml:space="preserve">
<rect x="157.091" y="407.273" style="fill:#FFC170;" width="197.818" height="104.727"/>
<rect x="157.091" y="407.273" style="fill:#FF5023;" width="197.818" height="69.818"/>
<rect x="157.091" y="471.273" style="fill:#A2001D;" width="197.818" height="40.727"/>
<polygon style="fill:#FFE98F;" points="121.829,0 123.365,76.78 157.091,407.273 354.909,407.273 388.546,77.571 388.635,76.78 
	390.171,0 "/>
<path d="M221.091,471.273c0-19.279,15.63-34.909,34.909-34.909s34.909,15.63,34.909,34.909"/>
<polygon style="fill:#FFC170;" points="256,0 256,407.273 354.909,407.273 388.546,77.571 388.635,76.78 390.171,0 "/>
<polygon style="fill:#FFFFFF;" points="163.682,128 185.057,337.455 326.942,337.455 348.311,128 "/>
<g>
	<rect x="209.455" y="186.182" style="fill:#FFC170;" width="93.091" height="34.909"/>
	<rect x="232.727" y="244.364" style="fill:#FFC170;" width="46.545" height="34.909"/>
</g>
<polygon style="fill:#FF5023;" points="388.798,34.909 390.171,0 121.829,0 123.202,34.909 "/>
</svg>